<svg width="90" height="1204" viewBox="0 0 90 1204" fill="none" xmlns="http://www.w3.org/2000/svg">
<g filter="url(#filter0_d_686_7679)">
<mask id="path-1-inside-1_686_7679" fill="white">
<path fill-rule="evenodd" clip-rule="evenodd" d="M50 57.4999C61.4112 55.1836 70 45.0948 70 33C70 19.1929 58.8071 8 45 8C31.1929 8 20 19.1929 20 33C20 45.0948 28.5888 55.1836 40 57.4999V567.5C28.5888 569.816 20 579.905 20 592C20 604.095 28.5888 614.184 40 616.5V1122.5C28.5888 1124.82 20 1134.91 20 1147C20 1160.81 31.1929 1172 45 1172C58.8071 1172 70 1160.81 70 1147C70 1134.91 61.4112 1124.82 50 1122.5V616.5C61.4112 614.184 70 604.095 70 592C70 579.905 61.4112 569.816 50 567.5V57.4999Z"/>
</mask>
<path fill-rule="evenodd" clip-rule="evenodd" d="M50 57.4999C61.4112 55.1836 70 45.0948 70 33C70 19.1929 58.8071 8 45 8C31.1929 8 20 19.1929 20 33C20 45.0948 28.5888 55.1836 40 57.4999V567.5C28.5888 569.816 20 579.905 20 592C20 604.095 28.5888 614.184 40 616.5V1122.5C28.5888 1124.82 20 1134.91 20 1147C20 1160.81 31.1929 1172 45 1172C58.8071 1172 70 1160.81 70 1147C70 1134.91 61.4112 1124.82 50 1122.5V616.5C61.4112 614.184 70 604.095 70 592C70 579.905 61.4112 569.816 50 567.5V57.4999Z" fill="white"/>
<path d="M50 57.4999L49.8011 56.5199L49 56.6825V57.4999H50ZM40 57.4999H41V56.6825L40.1989 56.5199L40 57.4999ZM40 567.5L40.1989 568.48L41 568.317V567.5H40ZM40 616.5H41V615.683L40.1989 615.52L40 616.5ZM40 1122.5L40.1989 1123.48L41 1123.32V1122.5H40ZM50 1122.5H49V1123.32L49.8011 1123.48L50 1122.5ZM50 616.5L49.8011 615.52L49 615.683V616.5H50ZM50 567.5H49V568.317L49.8011 568.48L50 567.5ZM69 33C69 44.6098 60.7554 54.2963 49.8011 56.5199L50.1989 58.4799C62.067 56.0708 71 45.5797 71 33H69ZM45 9C58.2548 9 69 19.7452 69 33H71C71 18.6406 59.3594 7 45 7V9ZM21 33C21 19.7452 31.7452 9 45 9V7C30.6406 7 19 18.6406 19 33H21ZM40.1989 56.5199C29.2446 54.2963 21 44.6098 21 33H19C19 45.5797 27.933 56.0708 39.8011 58.4799L40.1989 56.5199ZM41 567.5V57.4999H39V567.5H41ZM21 592C21 580.39 29.2446 570.704 40.1989 568.48L39.8011 566.52C27.933 568.929 19 579.42 19 592H21ZM40.1989 615.52C29.2446 613.296 21 603.61 21 592H19C19 604.58 27.933 615.071 39.8011 617.48L40.1989 615.52ZM41 1122.5V616.5H39V1122.5H41ZM21 1147C21 1135.39 29.2446 1125.7 40.1989 1123.48L39.8011 1121.52C27.933 1123.93 19 1134.42 19 1147H21ZM45 1171C31.7452 1171 21 1160.25 21 1147H19C19 1161.36 30.6406 1173 45 1173V1171ZM69 1147C69 1160.25 58.2548 1171 45 1171V1173C59.3594 1173 71 1161.36 71 1147H69ZM49.8011 1123.48C60.7554 1125.7 69 1135.39 69 1147H71C71 1134.42 62.067 1123.93 50.1989 1121.52L49.8011 1123.48ZM49 616.5V1122.5H51V616.5H49ZM69 592C69 603.61 60.7554 613.296 49.8011 615.52L50.1989 617.48C62.067 615.071 71 604.58 71 592H69ZM49.8011 568.48C60.7554 570.704 69 580.39 69 592H71C71 579.42 62.067 568.929 50.1989 566.52L49.8011 568.48ZM49 57.4999V567.5H51V57.4999H49Z" fill="#DCDDED" mask="url(#path-1-inside-1_686_7679)"/>
</g>
<defs>
<filter id="filter0_d_686_7679" x="0" y="0" width="90" height="1204" filterUnits="userSpaceOnUse" color-interpolation-filters="sRGB">
<feFlood flood-opacity="0" result="BackgroundImageFix"/>
<feColorMatrix in="SourceAlpha" type="matrix" values="0 0 0 0 0 0 0 0 0 0 0 0 0 0 0 0 0 0 127 0" result="hardAlpha"/>
<feOffset dy="12"/>
<feGaussianBlur stdDeviation="10"/>
<feComposite in2="hardAlpha" operator="out"/>
<feColorMatrix type="matrix" values="0 0 0 0 0.615313 0 0 0 0 0.697978 0 0 0 0 0.825 0 0 0 0.1 0"/>
<feBlend mode="normal" in2="BackgroundImageFix" result="effect1_dropShadow_686_7679"/>
<feBlend mode="normal" in="SourceGraphic" in2="effect1_dropShadow_686_7679" result="shape"/>
</filter>
</defs>
</svg>
